<?xml version="1.0" standalone="no"?>
<!DOCTYPE svg PUBLIC "-//W3C//DTD SVG 20010904//EN"
 "http://www.w3.org/TR/2001/REC-SVG-20010904/DTD/svg10.dtd">
<svg version="1.0" xmlns="http://www.w3.org/2000/svg"
 width="260.000000pt" height="260.000000pt" viewBox="0 0 260.000000 260.000000"
 preserveAspectRatio="xMidYMid meet">
<metadata>
Created by potrace 1.11, written by Peter Selinger 2001-2013
</metadata>
<g transform="translate(0.000000,260.000000) scale(0.100000,-0.100000)"
fill="#000000" stroke="none">
<path d="M650 2420 c-11 -11 -20 -33 -20 -50 0 -33 -222 -441 -272 -498 -15
-18 -28 -40 -28 -50 0 -23 -236 -444 -258 -459 -37 -26 -42 -35 -42 -68 0 -25
7 -39 29 -57 40 -31 281 -459 281 -498 0 -20 9 -36 29 -52 40 -32 261 -427
261 -467 0 -56 62 -89 106 -56 15 12 64 14 261 15 212 0 245 -2 272 -17 30
-17 32 -17 62 0 27 15 60 17 269 17 204 0 245 -2 275 -17 34 -16 36 -16 63 4
18 13 28 31 30 52 5 44 226 440 263 469 20 16 29 33 29 52 0 40 240 466 280
498 23 18 30 32 30 57 0 31 -21 65 -39 65 -5 0 -61 94 -125 209 -88 157 -116
217 -116 244 0 36 -17 61 -48 71 -23 8 -263 438 -273 489 -9 51 -33 71 -74 61
-51 -12 -547 -16 -559 -4 -13 13 -63 13 -71 0 -4 -6 -103 -10 -265 -10 -162 0
-261 4 -265 10 -11 17 -64 11 -85 -10z m622 -111 c15 -8 30 -8 57 0 23 8 95
11 201 9 l165 -3 -345 -128 -345 -128 -68 73 c-37 40 -90 99 -118 131 l-51 57
242 0 c158 0 248 -4 262 -11z m546 2 c-1 -5 -119 -135 -261 -290 l-257 -280
-130 139 c-72 77 -130 144 -130 148 0 9 742 290 768 291 8 1 12 -3 10 -8z
m-858 -257 c0 -6 -55 -31 -122 -56 l-123 -46 -3 166 c-1 92 0 173 3 182 5 11
39 -19 125 -110 66 -69 119 -130 120 -136z m943 219 c43 -69 238 -422 252
-457 l14 -34 -225 -241 c-125 -133 -229 -241 -233 -241 -10 0 -379 403 -380
415 0 11 530 593 541 594 4 1 18 -16 31 -36z m-1225 -265 l-3 -71 -100 -37
c-55 -21 -101 -36 -103 -35 -2 2 159 292 187 335 16 24 16 23 19 -47 2 -40 2
-105 0 -145z m453 -134 c74 -81 135 -150 137 -155 2 -5 -79 -99 -180 -209
l-183 -200 -97 101 -98 102 0 201 0 201 138 52 c75 28 140 52 143 52 3 1 66
-65 140 -145z m-451 -144 c0 -93 -3 -170 -7 -170 -5 0 -54 49 -109 108 -132
140 -132 145 4 195 54 20 100 36 105 36 4 1 7 -75 7 -169z m-116 -100 l116
-125 0 -218 0 -219 -117 -129 c-65 -71 -123 -129 -129 -129 -14 0 -274 461
-274 485 0 22 219 414 248 443 12 13 26 22 31 20 4 -2 60 -59 125 -128z m1633
99 c-3 -11 -41 -192 -83 -400 -43 -209 -81 -378 -85 -377 -16 6 -290 310 -287
319 5 15 442 479 452 479 4 0 6 -9 3 -21z m-708 -242 c102 -111 186 -207 188
-214 4 -12 -343 -387 -361 -390 -10 -1 -343 343 -374 387 -13 17 2 37 170 219
100 110 185 200 188 200 3 -1 88 -91 189 -202z m854 5 c54 -95 97 -181 97
-191 0 -28 -260 -491 -276 -491 -7 0 -33 24 -58 53 l-45 52 80 385 c43 212 79
387 79 390 0 15 38 -46 123 -198z m-1463 -203 c0 -3 -38 -45 -85 -95 l-84 -89
0 185 -1 185 85 -90 c46 -49 84 -93 85 -96z m200 -209 c90 -96 175 -187 189
-203 l25 -27 -44 -45 -44 -45 -248 0 -248 0 0 146 0 146 97 104 c53 58 99 103
103 102 4 -2 80 -82 170 -178z m794 -13 l154 -168 -14 -57 c-7 -31 -13 -63
-14 -69 0 -10 -64 -13 -288 -13 l-288 0 -43 44 -43 44 183 196 c101 107 187
194 191 193 4 -1 77 -78 162 -170z m-1196 -184 l-3 -118 -99 -3 c-55 -1 -103
1 -108 6 -9 9 187 232 204 232 5 0 7 -53 6 -117z m1425 -65 c20 -23 33 -46 31
-50 -7 -10 -92 -10 -97 0 -6 12 13 92 23 92 4 0 24 -19 43 -42z m-756 -20 c34
-31 29 -38 -27 -38 -27 0 -50 3 -50 7 0 8 41 53 49 53 2 0 15 -10 28 -22z
m-667 -250 c0 -124 -3 -179 -10 -172 -10 10 -200 344 -200 351 0 2 47 3 105 3
l105 0 0 -182z m488 173 c-3 -9 -204 -226 -346 -373 -63 -66 -77 -76 -93 -67
-18 9 -19 24 -19 229 l0 220 231 0 c135 0 229 -4 227 -9z m450 -216 c117 -123
212 -227 212 -230 0 -10 -489 -5 -495 5 -8 13 -62 13 -70 0 -8 -13 -458 -14
-453 0 2 5 95 108 208 229 l205 220 91 0 91 1 211 -225z m372 220 c0 -19 -84
-404 -91 -418 -6 -9 -15 -17 -22 -17 -11 0 -417 423 -417 434 0 3 119 6 265 6
146 0 265 -2 265 -5z m138 -3 c-17 -39 -152 -272 -155 -268 -3 2 8 65 23 140
l29 136 53 0 c30 0 52 -3 50 -8z"/>
</g>
</svg>
