<?xml version="1.0" standalone="no"?>
<!DOCTYPE svg PUBLIC "-//W3C//DTD SVG 20010904//EN"
 "http://www.w3.org/TR/2001/REC-SVG-20010904/DTD/svg10.dtd">
<svg version="1.0" xmlns="http://www.w3.org/2000/svg"
 width="260.000000pt" height="260.000000pt" viewBox="0 0 260.000000 260.000000"
 preserveAspectRatio="xMidYMid meet">
<metadata>
Created by potrace 1.11, written by Peter Selinger 2001-2013
</metadata>
<g transform="translate(0.000000,260.000000) scale(0.100000,-0.100000)"
fill="#000000" stroke="none">
<path d="M647 2423 c-9 -11 -17 -32 -17 -48 0 -31 -235 -462 -276 -506 -13
-14 -24 -33 -24 -42 0 -31 -231 -430 -271 -468 -48 -45 -49 -72 -6 -113 35
-33 281 -461 279 -486 -1 -27 20 -69 38 -75 25 -8 252 -420 256 -464 2 -22 11
-43 24 -53 25 -20 70 -24 86 -8 12 12 503 8 547 -5 18 -5 37 -3 50 4 24 13
507 10 562 -3 37 -9 75 22 75 61 0 33 238 461 261 468 17 6 38 48 37 75 -2 26
243 452 278 486 43 40 43 68 0 108 -49 46 -258 421 -250 451 7 30 -10 61 -44
79 -34 17 -276 442 -278 487 -2 42 -30 69 -70 69 -18 0 -36 -4 -39 -10 -4 -6
-102 -10 -260 -10 -158 0 -256 4 -260 10 -8 13 -78 13 -91 0 -12 -12 -479 -8
-549 5 -33 5 -44 3 -58 -12z m618 -113 c8 -13 58 -13 71 0 7 7 74 9 180 8
l169 -3 -333 -124 c-183 -67 -338 -121 -345 -118 -15 5 -227 231 -227 241 0
11 478 7 485 -4z m555 4 c0 -3 -29 -36 -64 -73 -35 -36 -150 -160 -255 -276
-106 -115 -196 -211 -200 -213 -7 -2 -253 260 -258 276 -2 6 747 289 770 291
4 1 7 -2 7 -5z m201 -254 c72 -129 132 -247 133 -261 1 -21 -43 -73 -219 -262
-121 -130 -222 -237 -225 -236 -6 1 -335 357 -364 394 l-19 24 109 118 c61 65
183 198 273 296 90 98 168 174 172 170 4 -4 67 -114 140 -243z m-1175 120 c60
-66 110 -124 111 -128 2 -6 -221 -92 -240 -92 -4 0 -7 77 -7 170 0 134 3 170
13 170 7 0 62 -54 123 -120z m-183 -240 c-11 -10 -176 -70 -181 -66 -1 2 39
78 90 169 l93 165 3 -131 c1 -72 -1 -134 -5 -137z m476 -79 l132 -144 -24 -26
c-234 -257 -341 -371 -346 -371 -4 0 -48 45 -99 99 l-92 100 2 197 3 197 140
53 c77 29 143 49 146 46 3 -4 65 -72 138 -151z m-469 -136 l0 -164 -104 110
c-128 135 -128 139 -5 186 46 18 90 32 97 32 9 1 12 -38 12 -164z m-113 -92
l113 -118 0 -228 0 -228 -116 -125 c-96 -102 -119 -123 -130 -112 -6 7 -68
113 -137 236 -112 199 -125 225 -117 252 7 25 179 342 226 418 8 12 22 22 32
22 9 1 68 -52 129 -117z m1592 -115 c-27 -128 -63 -306 -81 -395 -18 -90 -36
-163 -40 -163 -9 0 -283 298 -283 309 0 9 436 479 446 480 4 1 -15 -104 -42
-231z m182 -10 c70 -125 102 -192 101 -211 -2 -26 -229 -446 -257 -475 -10
-11 -20 -5 -58 35 -26 26 -47 55 -47 63 0 17 152 770 156 770 1 0 48 -82 105
-182z m-840 -29 c101 -110 184 -204 184 -209 0 -5 -81 -96 -180 -201 l-179
-192 -104 109 c-56 60 -143 152 -192 205 l-89 95 180 197 c99 108 184 197 188
197 5 0 91 -90 192 -201z m-688 -105 l77 -85 -77 -84 c-42 -47 -81 -85 -85
-85 -4 0 -8 77 -8 170 0 94 3 170 8 169 4 -1 42 -39 85 -85z m371 -398 l119
-127 -38 -39 -39 -40 -253 0 -253 0 0 138 0 137 98 108 97 108 75 -79 c41 -43
129 -136 194 -206z m641 152 c55 -60 124 -136 154 -169 l53 -60 -12 -64 -12
-65 -292 0 -292 0 -37 38 -37 37 183 197 c100 108 184 196 187 196 3 0 50 -49
105 -110z m-1145 -243 l0 -115 -101 0 c-61 0 -99 4 -97 10 3 9 190 219 196
220 1 0 2 -52 2 -115z m1425 -62 c19 -21 35 -41 35 -45 0 -5 -21 -8 -46 -8
l-46 0 6 31 c3 17 6 38 6 45 0 21 6 17 45 -23z m-755 -28 l23 -25 -48 0 -48 0
23 25 c13 14 24 25 25 25 1 0 12 -11 25 -25z m-670 -242 c0 -97 -2 -174 -4
-172 -7 9 -175 315 -181 332 -7 15 2 17 89 17 l96 0 0 -177z m500 171 c0 -4
-35 -43 -79 -88 -43 -44 -136 -143 -207 -218 -70 -76 -133 -138 -139 -138 -31
0 -35 25 -35 230 0 114 3 210 7 213 8 9 453 9 453 1z m448 -221 l212 -228
-227 -3 c-160 -2 -239 1 -266 9 -30 10 -46 10 -71 1 -33 -12 -456 -18 -456 -6
0 3 95 106 211 230 l212 224 86 0 86 0 213 -227z m364 222 c9 -9 -79 -406 -94
-421 -13 -13 -25 -4 -104 78 -95 99 -237 249 -293 311 l-35 37 260 0 c144 0
263 -2 266 -5z m138 -2 c0 -11 -130 -246 -142 -258 -8 -7 -9 -5 -5 6 3 8 15
65 27 125 11 60 23 115 25 122 5 13 95 18 95 5z"/>
</g>
</svg>
